<?xml version="1.0" encoding="iso-8859-1"?>
<!-- Generator: Adobe Illustrator 19.0.0, SVG Export Plug-In . SVG Version: 6.00 Build 0)  -->
<svg version="1.1" id="Capa_1" xmlns="http://www.w3.org/2000/svg" xmlns:xlink="http://www.w3.org/1999/xlink" x="0px" y="0px"
	 viewBox="0 0 409.6 409.6" style="enable-background:new 0 0 409.6 409.6;" xml:space="preserve">
<g>
	<g>
		<path d="M375.465,0H34.135C15.365,0,0,15.365,0,34.135V375.47c0,18.76,15.365,34.13,34.135,34.13h341.33
			c18.77,0,34.135-15.37,34.135-34.13V34.135C409.6,15.365,394.235,0,375.465,0z M375.465,375.47H34.135V34.135h341.33V375.47z"/>
	</g>
</g>
<g>
	<g>
		<rect x="102.4" y="170.65" width="34.135" height="136.535"/>
	</g>
</g>
<g>
	<g>
		<circle cx="119.45" cy="128" r="25.6"/>
	</g>
</g>
<g>
	<g>
		<path d="M238.935,170.665c-12.498,0-24.069,3.61-34.135,9.467v-8.049h-34.135V307.2H204.8v-68.27
			c0-18.852,15.283-34.13,34.135-34.13c18.852,0,34.13,15.278,34.13,34.13v68.27H307.2v-68.27
			C307.2,201.231,276.634,170.665,238.935,170.665z"/>
	</g>
</g>
<g>
</g>
<g>
</g>
<g>
</g>
<g>
</g>
<g>
</g>
<g>
</g>
<g>
</g>
<g>
</g>
<g>
</g>
<g>
</g>
<g>
</g>
<g>
</g>
<g>
</g>
<g>
</g>
<g>
</g>
</svg>
